<mxfile host="65bd71144e">
    <diagram id="IjiH43iWZNQGZbwZDshw" name="StateChange in AddBricks">
        <mxGraphModel dx="1348" dy="878" grid="1" gridSize="10" guides="1" tooltips="1" connect="1" arrows="1" fold="1" page="1" pageScale="1" pageWidth="850" pageHeight="1100" math="0" shadow="0">
            <root>
                <mxCell id="0"/>
                <mxCell id="1" parent="0"/>
                <mxCell id="7xFXuyvfQs4OUFI7jeYs-5" style="edgeStyle=none;html=1;" edge="1" parent="1" source="3" target="7xFXuyvfQs4OUFI7jeYs-3">
                    <mxGeometry relative="1" as="geometry"/>
                </mxCell>
                <mxCell id="7xFXuyvfQs4OUFI7jeYs-6" style="edgeStyle=none;html=1;entryX=0;entryY=0.5;entryDx=0;entryDy=0;" edge="1" parent="1" source="3" target="7xFXuyvfQs4OUFI7jeYs-4">
                    <mxGeometry relative="1" as="geometry"/>
                </mxCell>
                <mxCell id="3" value="GenerateTetrisPiece" style="rounded=0;whiteSpace=wrap;html=1;fillColor=#66B2FF;" vertex="1" parent="1">
                    <mxGeometry x="270" y="60" width="120" height="60" as="geometry"/>
                </mxCell>
                <mxCell id="7xFXuyvfQs4OUFI7jeYs-3" value="resetCurrentArrays" style="rounded=1;whiteSpace=wrap;html=1;" vertex="1" parent="1">
                    <mxGeometry x="510" y="10" width="120" height="60" as="geometry"/>
                </mxCell>
                <mxCell id="7xFXuyvfQs4OUFI7jeYs-4" value="updateCurrentArrays" style="rounded=1;whiteSpace=wrap;html=1;" vertex="1" parent="1">
                    <mxGeometry x="520" y="140" width="120" height="60" as="geometry"/>
                </mxCell>
                <mxCell id="7xFXuyvfQs4OUFI7jeYs-11" style="edgeStyle=none;html=1;entryX=0;entryY=0.5;entryDx=0;entryDy=0;" edge="1" parent="1" source="7xFXuyvfQs4OUFI7jeYs-7" target="7xFXuyvfQs4OUFI7jeYs-8">
                    <mxGeometry relative="1" as="geometry"/>
                </mxCell>
                <mxCell id="7xFXuyvfQs4OUFI7jeYs-7" value="generateUnblockedPiece" style="rounded=0;whiteSpace=wrap;html=1;fillColor=#66B2FF;" vertex="1" parent="1">
                    <mxGeometry x="240" y="300" width="170" height="80" as="geometry"/>
                </mxCell>
                <mxCell id="7xFXuyvfQs4OUFI7jeYs-8" value="handleEndGame" style="rounded=1;whiteSpace=wrap;html=1;" vertex="1" parent="1">
                    <mxGeometry x="500" y="250" width="120" height="60" as="geometry"/>
                </mxCell>
                <mxCell id="7xFXuyvfQs4OUFI7jeYs-9" value="fillSevenBag" style="rounded=1;whiteSpace=wrap;html=1;" vertex="1" parent="1">
                    <mxGeometry x="510" y="450" width="120" height="60" as="geometry"/>
                </mxCell>
                <mxCell id="7xFXuyvfQs4OUFI7jeYs-12" style="edgeStyle=none;html=1;entryX=0;entryY=0.5;entryDx=0;entryDy=0;" edge="1" parent="1" source="7xFXuyvfQs4OUFI7jeYs-10" target="7xFXuyvfQs4OUFI7jeYs-9">
                    <mxGeometry relative="1" as="geometry"/>
                </mxCell>
                <mxCell id="7xFXuyvfQs4OUFI7jeYs-10" value="selectNextPiece" style="rounded=0;whiteSpace=wrap;html=1;fillColor=#66B2FF;" vertex="1" parent="1">
                    <mxGeometry x="265" y="430" width="120" height="60" as="geometry"/>
                </mxCell>
                <mxCell id="7xFXuyvfQs4OUFI7jeYs-17" style="edgeStyle=none;html=1;entryX=1;entryY=0.75;entryDx=0;entryDy=0;" edge="1" parent="1" source="7xFXuyvfQs4OUFI7jeYs-13" target="7xFXuyvfQs4OUFI7jeYs-14">
                    <mxGeometry relative="1" as="geometry"/>
                </mxCell>
                <mxCell id="7xFXuyvfQs4OUFI7jeYs-18" style="edgeStyle=none;html=1;" edge="1" parent="1" source="7xFXuyvfQs4OUFI7jeYs-13" target="7xFXuyvfQs4OUFI7jeYs-15">
                    <mxGeometry relative="1" as="geometry"/>
                </mxCell>
                <mxCell id="7xFXuyvfQs4OUFI7jeYs-19" style="edgeStyle=none;html=1;" edge="1" parent="1" source="7xFXuyvfQs4OUFI7jeYs-13" target="7xFXuyvfQs4OUFI7jeYs-16">
                    <mxGeometry relative="1" as="geometry"/>
                </mxCell>
                <mxCell id="7xFXuyvfQs4OUFI7jeYs-13" value="nextPieceLogic" style="rounded=0;whiteSpace=wrap;html=1;fillColor=#66B2FF;" vertex="1" parent="1">
                    <mxGeometry x="1070" y="120" width="150" height="50" as="geometry"/>
                </mxCell>
                <mxCell id="7xFXuyvfQs4OUFI7jeYs-14" value="generateNextPiece" style="rounded=1;whiteSpace=wrap;html=1;" vertex="1" parent="1">
                    <mxGeometry x="810" y="20" width="120" height="60" as="geometry"/>
                </mxCell>
                <mxCell id="7xFXuyvfQs4OUFI7jeYs-15" value="selectNextPiece" style="rounded=1;whiteSpace=wrap;html=1;" vertex="1" parent="1">
                    <mxGeometry x="820" y="110" width="120" height="60" as="geometry"/>
                </mxCell>
                <mxCell id="7xFXuyvfQs4OUFI7jeYs-16" value="updateNextPieceIndicator" style="rounded=1;whiteSpace=wrap;html=1;" vertex="1" parent="1">
                    <mxGeometry x="800" y="210" width="160" height="90" as="geometry"/>
                </mxCell>
                <mxCell id="7xFXuyvfQs4OUFI7jeYs-25" style="edgeStyle=none;html=1;entryX=1;entryY=0.25;entryDx=0;entryDy=0;" edge="1" parent="1" source="7xFXuyvfQs4OUFI7jeYs-20" target="7xFXuyvfQs4OUFI7jeYs-21">
                    <mxGeometry relative="1" as="geometry"/>
                </mxCell>
                <mxCell id="7xFXuyvfQs4OUFI7jeYs-26" style="edgeStyle=none;html=1;entryX=1;entryY=0.25;entryDx=0;entryDy=0;" edge="1" parent="1" source="7xFXuyvfQs4OUFI7jeYs-20" target="7xFXuyvfQs4OUFI7jeYs-22">
                    <mxGeometry relative="1" as="geometry"/>
                </mxCell>
                <mxCell id="7xFXuyvfQs4OUFI7jeYs-27" style="edgeStyle=none;html=1;entryX=1;entryY=0;entryDx=0;entryDy=0;" edge="1" parent="1" source="7xFXuyvfQs4OUFI7jeYs-20" target="7xFXuyvfQs4OUFI7jeYs-23">
                    <mxGeometry relative="1" as="geometry"/>
                </mxCell>
                <mxCell id="7xFXuyvfQs4OUFI7jeYs-28" style="edgeStyle=none;html=1;entryX=1;entryY=0.5;entryDx=0;entryDy=0;" edge="1" parent="1" source="7xFXuyvfQs4OUFI7jeYs-20" target="7xFXuyvfQs4OUFI7jeYs-24">
                    <mxGeometry relative="1" as="geometry"/>
                </mxCell>
                <mxCell id="7xFXuyvfQs4OUFI7jeYs-20" value="startGame" style="rounded=0;whiteSpace=wrap;html=1;fillColor=#66B2FF;" vertex="1" parent="1">
                    <mxGeometry x="1090" y="390" width="150" height="50" as="geometry"/>
                </mxCell>
                <mxCell id="7xFXuyvfQs4OUFI7jeYs-21" value="generateGridCells" style="rounded=1;whiteSpace=wrap;html=1;" vertex="1" parent="1">
                    <mxGeometry x="860" y="340" width="120" height="60" as="geometry"/>
                </mxCell>
                <mxCell id="7xFXuyvfQs4OUFI7jeYs-22" value="generateFirstPiece" style="rounded=1;whiteSpace=wrap;html=1;" vertex="1" parent="1">
                    <mxGeometry x="860" y="420" width="120" height="60" as="geometry"/>
                </mxCell>
                <mxCell id="7xFXuyvfQs4OUFI7jeYs-23" value="selectNextPiece" style="rounded=1;whiteSpace=wrap;html=1;" vertex="1" parent="1">
                    <mxGeometry x="860" y="490" width="120" height="60" as="geometry"/>
                </mxCell>
                <mxCell id="7xFXuyvfQs4OUFI7jeYs-24" value="updateNextPieceIndicator" style="rounded=1;whiteSpace=wrap;html=1;" vertex="1" parent="1">
                    <mxGeometry x="850" y="570" width="150" height="80" as="geometry"/>
                </mxCell>
            </root>
        </mxGraphModel>
    </diagram>
    <diagram id="chC0c6m9HYkruJEiikyZ" name="Page-2">
        <mxGraphModel dx="876" dy="495" grid="1" gridSize="10" guides="1" tooltips="1" connect="1" arrows="1" fold="1" page="1" pageScale="1" pageWidth="850" pageHeight="1100" math="0" shadow="0">
            <root>
                <mxCell id="0"/>
                <mxCell id="1" parent="0"/>
            </root>
        </mxGraphModel>
    </diagram>
</mxfile>